<svg id="SvgjsSvg1001" width="288" height="288" xmlns="http://www.w3.org/2000/svg" version="1.1" xmlns:xlink="http://www.w3.org/1999/xlink" xmlns:svgjs="http://svgjs.com/svgjs"><defs id="SvgjsDefs1002"></defs><g id="SvgjsG1008" transform="matrix(1,0,0,1,0,0)"><svg xmlns="http://www.w3.org/2000/svg" width="288" height="288" enable-background="new 0 0 453.54 453.54" viewBox="0 0 453.54 453.54"><path fill="#ffffff" fill-rule="evenodd" d="M230.492,429.283c-20.133,0-40.266-0.021-60.402,0.006
			c-26.797,0.035-53.594,0.137-80.391,0.156c-18.686,0.012-37.374-0.012-56.056-0.146c-5.024-0.037-10.049-0.518-15.07-0.822
			c-1.509-0.09-2.125-0.756-2.012-2.365c0.237-3.32,0.428-6.654,0.903-9.943c0.93-6.41,1.938-12.811,3.104-19.182
			c1.426-7.768,3.519-15.377,5.965-22.889c1.59-4.883,3.168-9.77,4.693-14.674c0.443-1.418,1.221-2.516,2.434-3.336
			c6.951-4.711,13.894-9.432,20.852-14.135c4.94-3.34,9.9-6.66,14.856-9.984c8.388-5.631,17.149-10.645,25.974-15.549
			c7.085-3.936,14.289-7.648,21.426-11.486c5.381-2.895,10.771-5.775,16.094-8.779c2.42-1.367,4.688-3.008,7.011-4.549
			c0.386-0.254,0.726-0.6,1.021-0.957c2.015-2.412,3.852-4.992,6.041-7.232c5.692-5.822,11.533-11.498,17.318-17.232
			c3.314-3.287,6.563-6.643,9.975-9.828c1.655-1.545,3.586-2.797,5.442-4.111c0.353-0.252,0.949-0.295,1.409-0.234
			c1.137,0.152,1.977-0.348,2.051-1.494c0.126-1.826-0.169-3.518-1.15-5.188c-1.496-2.549-2.757-5.246-3.988-7.936
			c-0.65-1.422-1.528-2.572-2.908-3.24c-4.276-2.068-6.554-5.682-8.147-9.975c-1.859-5.012-2.495-10.25-3.21-15.484
			c-0.606-4.408-1.023-8.863-1.938-13.209c-0.852-4.035-1.387-8.045-1.279-12.16c0.126-4.742,1.674-9.033,4.33-12.873
			c1.346-1.943,3.318-3.354,5.702-3.939c0.91-0.221,1.195-0.668,1.253-1.578c0.085-1.328,0.328-2.654,0.59-3.963
			c0.338-1.652,0.256-3.23-0.469-4.77c-0.862-1.836-1.662-3.695-2.553-5.518c-1.539-3.141-1.342-6.479-1.111-9.805
			c0.143-2.057,0.379-4.115,0.729-6.145c0.603-3.467-0.084-6.762-1.078-10.047c-2.025-6.721-2.563-13.475-0.531-20.32
			c0.336-1.137,0.301-2.404,0.32-3.613c0.022-1.377-0.182-2.756-0.113-4.127c0.311-6.184-0.668-12.275-1.26-18.396
			c-0.341-3.535-0.49-7.055,0.184-10.6c0.367-1.939,0.354-3.967,0.357-5.953c0-3.084,1.117-5.533,3.391-7.662
			c6.482-6.066,13.891-10.756,21.718-14.809c5.361-2.779,10.839-5.332,16.282-7.945c2.736-1.314,5.478-2.641,8.289-3.783
			c5.105-2.072,10.506-2.703,15.961-2.779c11.011-0.16,22.012,0.188,32.984,1.188c3.67,0.334,7.179,1.225,10.548,2.768
			c4.735,2.164,9.491,4.285,14.309,6.262c3.512,1.438,7.095,2.73,10.713,3.871c4.37,1.375,8.89,1.102,13.362,0.621
			c4.607-0.494,9.188-1.201,13.784-1.754c2.705-0.324,5.019-1.549,7.299-2.906c1.367-0.814,2.76-1.588,4.156-2.344
			c2.958-1.594,4.921-1.438,7.71,1.045c1.59,1.414,2.98,3.057,4.402,4.648c2.844,3.18,5.805,6.271,7.898,10.041
			c1.166,2.104,1.752,4.326,1.69,6.748c-0.155,6.275-1.833,12.23-3.854,18.088c-0.846,2.445-0.979,4.799-0.292,7.223
			c1.911,6.715,3.913,13.404,5.792,20.129c2.122,7.592,4.318,15.17,6.174,22.83c1.637,6.75,1.646,13.707,1.848,20.625
			c0.152,5.137,0.389,10.271,0.695,15.4c0.111,1.912-0.113,3.65-1.107,5.314c-0.414,0.697-0.635,1.537-0.829,2.34
			c-0.208,0.873,0.317,1.555,1.198,1.541c4.623-0.078,7.201,2.707,9.003,6.475c2.086,4.348,2.417,9.021,1.943,13.711
			c-0.396,3.949-1.033,7.895-1.847,11.779c-1.486,7.078-3.611,14.004-4.509,21.227c-0.46,3.672-1.688,7.252-2.595,10.867
			c-0.697,2.781-1.604,5.48-3.221,7.891c-1.882,2.811-4.344,4.738-7.813,5.084c-1.041,0.104-1.686,0.57-1.898,1.604
			c-0.457,2.229-0.862,4.469-1.387,6.682c-1.328,5.631-2.494,11.314-4.134,16.855c-1.49,5.035-3.684,9.854-6.738,14.164
			c-1.665,2.348-3.671,4.471-5.63,6.596c-4.652,5.059-9.359,10.066-14.063,15.078c-1.607,1.715-3.233,3.412-4.908,5.061
			c-0.68,0.668-0.91,1.346-0.895,2.303c0.056,3.074,1.381,5.182,3.963,6.957c5.42,3.734,10.615,7.791,15.912,11.705
			c2.268,1.676,4.425,3.555,6.871,4.924c3.174,1.777,6.582,3.137,9.887,4.68c3.02,1.406,6.067,2.746,9.045,4.234
			c6.371,3.182,12.746,6.365,19.044,9.693c5.192,2.746,10.001,6.111,14.556,9.82c3.197,2.602,6.4,5.203,9.469,7.957
			c3.242,2.914,6.041,6.254,8.219,10.041c1.017,1.773,1.577,3.811,2.553,5.613c2.795,5.164,5.273,10.469,7.344,15.961
			c2.248,5.965,4.318,11.99,5.293,18.326c0.1,0.643,0.152,1.297,0.152,1.945c0,1.77-0.719,2.533-2.481,2.578
			c-4.163,0.107-8.325,0.236-12.488,0.26c-16.874,0.094-33.749,0.164-50.623,0.213c-16.185,0.047-32.376,0.041-48.563,0.086
			c-14.807,0.041-29.618,0.141-44.429,0.172c-15.174,0.031-30.348,0.006-45.519,0.006
			C230.492,429.043,230.492,429.164,230.492,429.283z M234.766,145.541c-0.58,0.041-0.797,0.01-0.984,0.076
			c-3.34,1.189-6.703,2.322-10.007,3.607c-4.348,1.691-8.646,3.5-12.968,5.266c-1.918,0.787-3.797,1.572-4.6,3.795
			c-0.383,1.063-1.096,2.008-1.701,2.977c-0.324,0.518-0.424,0.924-0.006,1.471c0.19,0.254,0.236,0.846,0.07,1.107
			c-0.865,1.371-1.826,2.678-2.728,4.025c-0.165,0.244-0.2,0.572-0.298,0.859c0.266,0.025,0.541,0.105,0.794,0.063
			c0.933-0.16,1.056,0.023,0.839,0.941c-0.447,1.896-0.965,3.795-1.199,5.723c-0.557,4.635-0.984,9.287-1.425,13.936
			c-0.077,0.82-0.408,1.352-1.169,1.652c-1.008,0.4-2.016,0.803-3.01,1.236c-0.804,0.35-1.322,0.16-1.578-0.697
			c-0.317-1.074-0.602-2.164-0.979-3.219c-1.561-4.348-4-8.146-7.006-11.652c-2.674-3.115-5.66-5.457-9.836-6.258
			c-3.874-0.742-7.376,0.557-9.445,3.883c-3.412,5.484-3.516,11.436-2.561,17.535c0.892,5.684,1.873,11.352,2.761,17.037
			c0.868,5.574,1.413,11.219,3.997,16.375c1.202,2.404,2.818,4.369,5.43,5.34c4.393,1.633,8.592,1.025,12.663-1.072
			c1.759-0.904,2.922-0.402,3.136,1.594c0.337,3.199,0.545,6.418,0.689,9.633c0.191,4.266,0.305,8.533,0.383,12.801
			c0.02,1.186-0.165,2.383-0.337,3.564c-0.056,0.375-0.376,0.713-0.573,1.066c-0.275-0.248-0.6-0.459-0.813-0.752
			c-0.23-0.316-0.425-0.691-0.513-1.07c-0.854-3.586-1.784-7.158-2.484-10.773c-0.495-2.551-0.628-5.174-1.026-7.748
			c-0.111-0.705-0.531-1.393-0.93-2.012c-0.121-0.188-0.72-0.262-0.949-0.127c-0.208,0.123-0.324,0.613-0.282,0.912
			c0.35,2.432,0.858,4.844,1.104,7.281c0.65,6.434,1.723,12.746,4.026,18.844c2.142,5.676,4.84,11.023,8.847,15.582
			c3.033,3.445,6.188,6.814,9.576,9.898c5.08,4.625,10.309,9.098,15.666,13.395c5.416,4.346,11.072,8.389,16.609,12.584
			c4.354,3.299,8.646,6.68,13.035,9.924c3.492,2.578,7.072,5.029,10.648,7.486c5.128,3.525,10.271,7.025,15.449,10.479
			c0.618,0.412,1.525,0.758,2.205,0.633c1.908-0.357,3.777-0.943,5.641-1.514c0.366-0.113,0.68-0.533,0.93-0.877
			c1.847-2.547,3.744-5.063,5.479-7.686c1.33-2.016,2.5-4.15,3.65-6.281c0.648-1.199,0.022-2.813-1.15-3.152
			c-0.933-0.271-1.895-0.523-2.86-0.592c-4.366-0.311-8.743-0.514-13.11-0.83c-3.1-0.223-6.227-0.373-9.277-0.916
			c-2.621-0.465-5.196-1.305-7.703-2.225c-2.906-1.066-5.838-2.182-8.543-3.668c-4.467-2.453-8.802-5.154-13.117-7.869
			c-3.919-2.465-7.829-4.957-11.577-7.67c-5.417-3.922-9.583-9.107-13.723-14.283c-1.195-1.492-2.226-3.117-3.278-4.717
			c-0.175-0.268-0.081-0.713-0.109-1.076c0.33,0.051,0.67,0.074,0.99,0.162c0.162,0.045,0.299,0.201,0.432,0.322
			c2.607,2.402,5.283,4.742,7.811,7.225c5.144,5.049,10.829,9.352,17.004,13.057c5.422,3.254,11.146,6.023,16.168,9.93
			c2.184,1.699,4.768,2.559,7.289,3.555c3.741,1.482,7.557,2.844,11.564,3.236c8.818,0.861,17.633,0.695,26.447-0.377
			c4.545-0.553,8.516-2.424,12.423-4.582c3.903-2.154,6.868-5.389,9.858-8.588c4.373-4.68,8.604-9.502,13.133-14.02
			c4.415-4.402,8.25-9.152,10.488-15.004c1.471-3.846,2.797-7.766,3.917-11.727c0.913-3.23,1.517-6.559,2.099-9.869
			c0.869-4.914,1.782-9.832,2.343-14.785c0.78-6.938,1.231-13.914,1.862-20.869c0.684-7.57,1.51-15.127,2.096-22.705
			c0.71-9.141,0.855-18.303,0.234-27.459c-0.208-3.1-0.464-6.221-1.057-9.266c-0.674-3.482-2.795-6.359-4.898-9.107
			c-3.845-5.031-8.646-9.068-14.205-12.082c-3.229-1.75-6.621-3.258-10.059-4.559c-4.337-1.641-8.977-1.902-13.553-2.342
			c-7.406-0.715-14.848-0.924-22.233-0.098c-6.466,0.725-12.89,1.889-19.298,3.059c-5.117,0.932-10.236,1.969-15.258,3.326
			c-4.14,1.119-8.141,2.756-12.189,4.201c-1.021,0.367-1.989,0.877-2.98,1.322c0.029,0.129,0.059,0.262,0.084,0.393
			c0.443,0.027,0.885,0.078,1.325,0.078c0.573,0.004,1.153-0.063,1.727-0.047c5.644,0.164,11.29,0.502,16.93,0.453
			c4.134-0.037,8.237,0.078,12.336,0.588c0.311,0.039,0.712,0.23,0.871,0.479c0.749,1.186,0.833,1.203,1.675-0.012
			c0.084-0.117,0.146-0.27,0.26-0.344c0.488-0.328,1.078-0.957,1.48-0.859c0.485,0.121,1.02,0.801,1.182,1.346
			c0.366,1.203,0.502,2.475,0.752,3.715c0.084,0.43,0.227,0.848,0.344,1.271c0.097,0.004,0.197,0.012,0.291,0.016
			c0.143-0.305,0.317-0.602,0.414-0.922c0.186-0.586,0.275-1.205,0.503-1.773c0.11-0.285,0.431-0.488,0.657-0.729
			c0.233,0.246,0.555,0.455,0.681,0.75c0.165,0.389,0.22,0.842,0.249,1.273c0.24,3.68,0.461,7.361,0.697,11.041
			c0.154,2.42,0.097,4.881,0.543,7.246c0.629,3.359,0.441,6.711,0.398,10.068c-0.006,0.514-0.579,1.152-1.063,1.473
			c-0.239,0.16-0.975-0.152-1.302-0.453c-0.401-0.369-0.745-0.912-0.878-1.439c-0.518-2.068-0.998-4.152-1.393-6.248
			c-0.622-3.342-1.574-6.527-4.357-8.742c-3.269-2.598-6.93-4.5-11.021-5.406c-4.661-1.035-9.355-1.928-14.043-2.852
			c-6.058-1.191-12.022-0.854-17.62,1.834c-2.277,1.094-4.214,2.9-6.311,4.379c-1.211,0.854-2.406,1.734-3.66,2.521
			c-0.281,0.178-0.773,0.027-1.166,0.027c0.013-0.408-0.078-0.861,0.064-1.217c0.253-0.629,0.609-1.229,0.994-1.789
			c2.41-3.52,4.844-7.023,7.264-10.533C234.127,146.561,234.357,146.178,234.766,145.541z M223.155,144.832
			c0.013-0.123,0.026-0.244,0.036-0.367c-0.489-0.271-1.014-0.5-1.468-0.828c-0.9-0.652-1.808-1.313-2.618-2.07
			c-0.271-0.254-0.252-0.818-0.365-1.242c0.411-0.021,0.885-0.188,1.225-0.041c2.177,0.941,3.93,0.162,5.563-1.24
			c1.373-1.174,2.682-2.434,4.14-3.494c1.315-0.957,2.815-0.68,4.095,0.131c1.201,0.762,1.976,1.898,1.855,3.449
			c-0.08,1.031,0.107,1.145,1.089,0.723c2.128-0.912,4.231-1.891,6.392-2.717c9.369-3.584,18.74-7.16,28.77-8.523
			c0.299-0.041,0.801-0.455,0.781-0.648c-0.107-0.957,0.473-1.361,1.149-1.775c4.335-2.637,9.045-4.113,14.108-4.125
			c3.061-0.01,6.125,0.389,9.178,0.691c0.479,0.045,1.314,0.58,1.295,0.842c-0.08,1.279,0.658,1.018,1.391,0.938
			c0.502-0.053,1.036,0.045,1.509-0.09c0.483-0.139,0.911-0.475,1.36-0.725c-0.305-0.359-0.544-0.838-0.933-1.064
			c-2.284-1.328-4.759-2.117-7.405-2.268c-2.566-0.146-5.135-0.23-7.703-0.318c-4.691-0.166-8.993-1.758-13.225-3.582
			c-0.316-0.137-0.744-0.551-0.722-0.795c0.029-0.291,0.444-0.639,0.771-0.787c0.693-0.307,1.43-0.51,2.154-0.742
			c3.855-1.234,7.759-1.693,11.775-0.857c5.206,1.084,10.389,2.381,15.768,2.242c0.469-0.014,0.936-0.227,1.402-0.348
			c-0.186-0.43-0.285-0.926-0.564-1.283c-2.394-3.064-5.598-5.102-8.953-6.922c-4.39-2.379-8.244-5.367-11.066-9.549
			c-0.242-0.357-0.317-0.83-0.47-1.246c0.454-0.164,0.949-0.531,1.357-0.455c2.193,0.41,4.444,0.707,6.521,1.471
			c3.195,1.172,5.748,3.434,8.281,5.664c3.09,2.717,5.986,5.711,9.883,7.342c0.366,0.154,0.855,0.273,1.189,0.148
			c0.174-0.064,0.232-0.707,0.184-1.068c-0.41-3.182-1.082-6.33-2.805-9.061c-2.459-3.898-3.689-8.061-3.428-12.654
			c0.029-0.496,0.266-0.98,0.405-1.471c0.485,0.232,1.04,0.383,1.438,0.717c0.664,0.553,1.264,1.197,1.834,1.852
			c1.82,2.1,3.891,4.047,4.771,6.785c0.709,2.203,1.25,4.461,1.924,6.678c0.713,2.363,1.982,4.41,3.716,6.172
			c0.625,0.639,1.212,0.709,1.643-0.129c0.554-1.086,1.205-2.174,1.478-3.34c0.42-1.824,0.547-3.713,0.816-5.572
			c0.521-3.586,2.364-6.574,4.347-9.484c0.531-0.781,1.102-0.66,1.325,0.281c0.392,1.652,0.619,3.342,0.994,4.996
			c0.612,2.666,0.379,5.248-0.547,7.797c-0.934,2.574-1.461,5.219-1.41,7.973c0.043,2.088,0.746,2.535,2.729,1.846
			c2.322-0.813,4.107-2.385,5.869-3.992c1.879-1.713,3.943-2.93,6.596-2.844c1.102,0.037,1.525,0.48,1.306,1.564
			c-0.077,0.387-0.253,0.754-0.376,1.131c-0.81,2.451-2.617,4.094-4.509,5.707c-1.756,1.496-3.44,3.082-5.093,4.695
			c-0.926,0.904-0.762,1.342,0.34,1.967c2.045,1.16,4.254,1.66,6.563,1.596c4.282-0.119,7.458,1.934,10.155,4.984
			c0.626,0.709,0.477,1.303-0.418,1.527c-0.871,0.217-1.771,0.344-2.666,0.447c-1.992,0.232-3.75-0.668-5.571-1.23
			c-2.002-0.621-4.014-0.988-6.087-0.422c-0.311,0.086-0.566,0.361-0.849,0.551c0.256,0.266,0.473,0.701,0.777,0.773
			c1.357,0.318,2.743,0.77,4.11,0.736c2.683-0.066,5.025,0.652,6.981,2.439c1.652,1.51,3.229,3.117,4.749,4.762
			c0.337,0.367,0.281,1.086,0.438,1.633c0.11,0.377,0.188,0.816,0.434,1.09c1.74,1.934,3.648,3.73,5.258,5.768
			c2.469,3.119,4.733,6.398,7.102,9.598c0.217,0.291,0.57,0.482,0.861,0.721c0.26-0.32,0.612-0.6,0.755-0.967
			c0.152-0.387,0.162-0.854,0.146-1.281c-0.317-7.668-0.615-15.336-1.014-23c-0.045-0.908-0.528-1.871-1.037-2.662
			c-0.638-0.996-1.539-1.822-2.28-2.758c-2.397-3.025-2.397-5.053,0.007-7.963c0.457-0.553,0.408-1.039,0.01-1.563
			c-0.787-1.035-1.553-2.088-2.361-3.102c-0.717-0.895-0.59-1.48,0.476-1.66c0.769-0.129,0.865-0.523,0.674-1.15
			c-0.853-2.803-1.727-5.6-2.553-8.408c-1.478-4.998-2.899-10.014-4.386-15.008c-0.917-3.082-1.905-6.141-2.877-9.205
			c-0.645-2.033-1.332-4.053-1.95-6.094c-0.081-0.273,0.143-0.641,0.227-0.965c0.314,0.107,0.729,0.125,0.927,0.344
			c0.512,0.551,0.955,1.174,1.367,1.805c0.411,0.635,0.777,0.615,1.102-0.02c0.197-0.381,0.305-0.809,0.424-1.225
			c0.383-1.359,0.774-2.715,1.124-4.08c0.991-3.855,2.128-7.688,2.206-11.709c0.014-0.521-0.1-1.086-0.324-1.551
			c-0.162-0.338-0.599-0.543-0.916-0.807c-0.169,0.336-0.428,0.656-0.496,1.01c-0.327,1.764-1.156,3.273-2.307,4.607
			c-0.242,0.279-0.719,0.357-1.085,0.527c-0.087-0.359-0.304-0.742-0.243-1.068c0.453-2.297-0.165-4.27-1.584-6.088
			c-0.998-1.281-1.95-2.613-2.793-4.002c-1.004-1.654-1.088-4.797,0.742-5.926c0.555-0.34,0.435-0.813,0.01-1.273
			c-1.279-1.381-2.52-2.795-3.793-4.182c-0.934-1.014-1.296-1.066-2.426-0.365c-1.072,0.666-2.136,1.355-3.195,2.049
			c-3.557,2.328-7.285,4.172-11.672,4.248c-0.861,0.014-1.72,0.219-2.584,0.311c-4.96,0.523-9.923,1.037-14.886,1.568
			c-0.376,0.039-0.742,0.199-1.111,0.307c0,0.102,0,0.205,0,0.307c0.372,0.186,0.739,0.387,1.118,0.553
			c2.195,0.945,4.402,1.861,6.576,2.848c0.32,0.143,0.502,0.592,0.744,0.9c-0.372,0.162-0.748,0.473-1.117,0.463
			c-1.48-0.037-2.957-0.191-4.441-0.264c-0.356-0.018-0.723,0.115-1.085,0.18c0.097,0.328,0.136,0.689,0.302,0.98
			c0.797,1.41,1.654,2.787,2.438,4.205c0.616,1.113,0.651,2.264-0.313,3.197c-0.966,0.936-2.123,0.748-3.243,0.275
			c-2.038-0.861-3.548-2.342-4.688-4.195c-0.515-0.838-1.024-1.221-2.112-0.961c-0.791,0.191-1.704-0.057-2.543-0.211
			c-0.227-0.043-0.479-0.443-0.527-0.713c-0.027-0.148,0.316-0.43,0.547-0.547c1.001-0.5,1.186-1.059,0.603-2.059
			c-0.493-0.844-1.124-1.631-1.474-2.529c-0.668-1.707-2.019-2.572-3.561-3.283c-0.295-0.135-0.573-0.301-0.858-0.463
			c-6.804-3.912-13.628-7.74-20.97-10.646c-4.178-1.656-8.486-1.98-12.821-2.496c-0.872-0.104-1.263,0.336-1.513,1.176
			c-0.467,1.582-0.982,3.17-1.665,4.666c-0.913,1.99-3.995,3.461-6.032,3.049c-2.3-0.463-3.469-1.896-3.738-4.639
			c-0.071-0.736-0.421-1.051-1.146-0.92c-2.55,0.449-4.694-0.441-6.611-2.027c-0.244-0.199-0.529-0.621-0.464-0.84
			c0.077-0.25,0.505-0.439,0.816-0.557c0.421-0.162,0.881-0.234,1.325-0.344c-0.017-0.146-0.029-0.291-0.046-0.441
			c-0.502-0.064-1.007-0.191-1.509-0.184c-2.025,0.025-4.05,0.125-6.074,0.135c-5.941,0.023-11.799,0.553-17.325,2.951
			c-2.553,1.109-5.083,2.281-7.58,3.51c-0.421,0.207-0.927,0.883-0.884,1.291c0.248,2.551-0.672,4.678-2.104,6.672
			c-1.548,2.158-4.059,2.965-6.064,1.877c-1.25-0.676-1.92-1.83-2.248-3.18c-0.184-0.77-0.541-1.074-1.309-0.646
			c-3.094,1.723-6.188,3.449-9.297,5.146c-0.642,0.346-0.658,0.766-0.58,1.426c0.146,1.203,0.301,2.463,0.101,3.637
			c-0.366,2.115-2.229,2.943-4.134,1.939c-0.726-0.379-1.39-0.916-1.986-1.482c-0.65-0.617-1.23-0.57-1.781,0.018
			c-0.281,0.299-0.453,0.719-0.615,1.109c-0.46,1.098-0.858,2.223-1.352,3.305c-0.104,0.223-0.498,0.414-0.764,0.424
			c-0.149,0.008-0.35-0.381-0.453-0.621c-0.063-0.146,0.064-0.363,0.029-0.531c-0.063-0.295-0.114-0.732-0.302-0.82
			c-0.214-0.1-0.642,0.039-0.862,0.217c-0.527,0.434-0.975,0.969-1.483,1.43c-1.345,1.221-1.876,2.707-1.927,4.533
			c-0.075,2.596-0.412,5.184-0.609,7.779c-0.127,1.658-0.389,3.334-0.263,4.977c0.343,4.508,0.843,9.006,1.331,13.502
			c0.053,0.465,0.457,0.891,0.697,1.336c0.439-0.301,1.104-0.508,1.285-0.922c0.862-1.982,1.656-4,2.362-6.047
			c0.777-2.256,1.412-4.559,2.163-6.826c0.121-0.357,0.516-0.625,0.781-0.934c0.27,0.309,0.619,0.58,0.784,0.934
			c0.239,0.52,0.308,1.117,0.524,1.652c0.359,0.877,0.83,0.92,1.393,0.145c1.024-1.402,1.986-2.854,3.049-4.225
			c2.996-3.855,5.783-7.914,9.106-11.471c6.073-6.498,12.469-12.701,18.753-19.006c0.69-0.691,1.127-1.271,0.434-2.223
			c-0.437-0.6-0.323-1.232,0.302-1.719c0.956-0.746,3.146-0.844,4.03-0.17c0.962,0.74,1.328,2.408,0.479,3.664
			c-1.205,1.789-2.621,3.439-4.005,5.1c-0.787,0.945-1.69,1.795-2.543,2.688c0.068,0.09,0.137,0.18,0.201,0.27
			c0.415-0.156,0.83-0.32,1.248-0.469c2.082-0.746,3.502,0.152,3.656,2.367c0.063,0.879,0.389,1.008,1.195,0.756
			c2.864-0.9,5.699-1.992,8.631-2.545c8.772-1.654,17.623-1.865,26.492-0.799c0.934,0.113,1.859,0.291,2.77,0.516
			c0.263,0.064,0.648,0.416,0.635,0.607c-0.022,0.291-0.298,0.723-0.557,0.803c-0.784,0.242-1.61,0.412-2.43,0.488
			c-6.411,0.615-12.825,1.211-19.239,1.791c-5.086,0.459-9.978,1.666-14.646,3.744c-0.318,0.139-0.535,0.5-0.794,0.758
			c0.249,0.227,0.489,0.471,0.761,0.672c0.545,0.41,1.15,0.75,1.643,1.215c0.279,0.26,0.383,0.709,0.564,1.072
			c-0.418,0.109-0.846,0.34-1.251,0.311c-1.943-0.156-3.579,0.346-4.759,1.982c-0.68,0.939-1.377,1.863-2.037,2.814
			c-1.102,1.592-2.313,3.074-4.06,3.998c-1.079,0.572-2.248,0.945-3.414,0.279c-1.079-0.619-1.261-1.738-1.205-2.848
			c0.042-0.82,0.294-1.629,0.431-2.445c0.055-0.334,0.055-0.676,0.081-1.016c-0.372,0.063-0.777,0.049-1.102,0.205
			c-0.612,0.301-1.156,0.754-1.774,1.035c-0.338,0.15-0.771,0.082-1.164,0.111c0.088-0.395,0.072-0.869,0.289-1.168
			c0.551-0.758,1.172-1.475,1.83-2.143c0.952-0.969,0.955-1.023-0.152-1.814c-0.227-0.162-0.434-0.506-0.44-0.766
			c0-0.189,0.317-0.455,0.551-0.559c0.425-0.189,0.897-0.275,1.345-0.418c1.885-0.594,3.395-1.564,3.922-3.65
			c0.236-0.934,0.629-1.828,0.949-2.742c-0.08-0.051-0.162-0.102-0.242-0.152c-0.309,0.227-0.651,0.414-0.914,0.682
			c-2.339,2.408-4.658,4.832-6.99,7.24c-6.116,6.313-11.3,13.369-16.369,20.516c-0.678,0.951-1.381,1.934-1.127,3.283
			c0.709,3.746,3.987,5.559,7.506,4.135c0.365-0.148,0.848-0.006,1.275,0.002c-0.032,0.445,0.088,0.984-0.123,1.313
			c-1,1.561-2.102,3.045-3.941,3.73c-0.846,0.316-0.84,0.828-0.412,1.537c0.596,0.986,1.15,2.004,1.619,3.053
			c0.149,0.33,0.113,0.902-0.09,1.178c-0.156,0.207-0.745,0.244-1.079,0.143c-2.896-0.873-3.806,0.125-4.917,2.174
			c-0.723,1.322-1.74,2.416-3.162,3.025c-1.522,0.658-2.89,0.141-3.647-1.33c-0.69-1.346-0.849-2.775-0.515-4.227
			c0.41-1.791,1.117-3.426,2.649-4.611c0.272-0.211,0.427-0.85,0.327-1.195c-0.14-0.471-0.58-0.85-0.891-1.266
			c-0.305,0.313-0.681,0.58-0.9,0.945c-2.184,3.631-4.131,7.383-5.557,11.387c-0.269,0.75-0.013,1.164,0.464,1.715
			c0.854,0.992,1.7,2.043,2.313,3.195c1.127,2.121,0.56,4.473,0.608,6.732c0.003,0.221-0.249,0.598-0.435,0.633
			c-0.21,0.041-0.531-0.17-0.713-0.361c-0.518-0.545-0.896-1.289-1.506-1.658c-0.467-0.281-1.299-0.301-1.791-0.066
			c-0.328,0.156-0.425,0.957-0.473,1.484c-0.053,0.566,0.1,1.148,0.113,1.727c0.02,1.018,0.411,1.748,1.309,2.328
			c2.287,1.475,2.877,3.141,2.29,5.762c-0.356,1.584-0.723,3.182-0.894,4.791c-0.324,3.055-0.471,6.125-0.766,9.184
			c-0.154,1.596-0.094,2.908,1.192,4.236c1.643,1.701,2.659,3.836,1.208,6.295c-0.094,0.158,0,0.633,0.082,0.652
			c0.246,0.063,0.625,0.072,0.787-0.076c0.66-0.611,1.36-1.223,1.865-1.955c3.674-5.33,7.289-10.703,10.966-16.033
			c0.755-1.092,0.995-2.162,0.716-3.467c-0.201-0.941-0.191-1.945-0.146-2.918c0.094-2.08,0.541-4.027,2.423-5.314
			c1.303-0.893,2.767-0.82,3.803,0.291c0.521,0.561,0.879,0.441,1.318-0.078c3.995-4.721,7.95-9.48,12.029-14.131
			c2.023-2.307,4.263-4.43,6.465-6.572c0.348-0.338,1.222-0.625,1.49-0.43c0.393,0.281,0.688,1.061,0.604,1.557
			c-0.133,0.789-0.473,1.625-0.966,2.26c-3.116,4.031-6.288,8.02-9.462,12.004c-2.773,3.482-5.582,6.934-8.352,10.42
			c-0.215,0.268-0.233,0.693-0.34,1.047c0.33-0.037,0.66-0.092,0.99-0.105c0.334-0.014,0.664,0.012,0.998,0.021
			c-0.094,0.422-0.052,0.98-0.308,1.24c-2.105,2.129-2.501,4.703-2.142,7.523c0.104,0.822,0.123,1.668,0.072,2.494
			c-0.121,1.979-1.469,3.41-3.215,3.5c-1.693,0.088-3.104-1.156-3.502-3.092c-0.061-0.295-0.139-0.59-0.275-1.164
			c-0.414,0.5-0.676,0.77-0.884,1.078c-2.666,4.006-5.313,8.021-7.988,12.023c-0.741,1.105-1.318,2.217-1.149,3.627
			c0.094,0.785,0.051,1.598-0.043,2.385c-0.194,1.604-0.68,3.016-2.439,3.645c-0.418,0.148-0.887,0.732-0.955,1.172
			c-0.146,0.947-0.178,1.951-0.02,2.893c0.266,1.564,0.839,1.822,2.28,1.084c2.089-1.068,4.163-2.178,6.207-3.336
			c2.55-1.443,4.976-3.125,7.606-4.396c4.49-2.172,9.083-4.141,13.664-6.123c3.952-1.711,7.939-3.336,11.924-4.973
			C220.473,145.813,221.82,145.338,223.155,144.832z M285.963,351.215c0.048-0.133,0.09-0.266,0.139-0.398
			c-0.359-0.307-0.703-0.635-1.086-0.914c-0.699-0.512-1.441-0.965-2.127-1.492c-1.031-0.791-1.974-1.707-3.049-2.428
			c-6.734-4.504-13.566-8.857-20.221-13.479c-5.523-3.836-10.853-7.951-16.243-11.977c-5.39-4.025-10.755-8.09-16.122-12.148
			c-3-2.27-6.064-4.461-8.947-6.869c-5.891-4.916-11.627-10-16.976-15.516c-6.434-6.635-11.698-13.963-14.309-22.965
			c-0.123-0.424-0.444-0.793-0.751-1.33c-0.191,0.354-0.275,0.441-0.282,0.535c-0.029,0.324-0.049,0.648-0.036,0.973
			c0.373,8.67,2.475,16.969,5.68,24.969c2.189,5.467,4.738,10.793,7.221,16.139c2.377,5.117,4.875,10.174,7.314,15.262
			c3.894,8.123,7.794,16.244,11.662,24.379c3.731,7.846,6.945,15.908,9.936,24.063c1.707,4.65,3.473,9.277,5.192,13.924
			c1.118,3.018,2.193,6.053,3.312,9.07c0.125,0.342,0.371,0.836,0.625,0.877c0.275,0.045,0.677-0.307,0.926-0.576
			c1.568-1.703,3.029-3.512,4.672-5.139c6.271-6.211,12.565-12.406,18.922-18.531c5.574-5.373,11.363-10.529,16.154-16.658
			c0.635-0.813,1.539-1.006,2.55-0.76c1.444,0.352,2.89,0.688,4.345,0.973C284.945,351.293,285.463,351.215,285.963,351.215z
			 M260.468,424.508c0,0.01,0,0.021,0,0.031c4.017,0,8.037,0.004,12.054-0.002c1.357,0,1.594-0.236,1.533-1.594
			c-0.053-1.082-0.254-2.164-0.228-3.244c0.11-5.006,0.804-9.947,1.821-14.844c0.389-1.873,0.479-3.539-0.539-5.381
			c-1.846-3.348-3.352-6.889-4.943-10.375c-2.315-5.063-4.596-10.145-6.857-15.232c-0.557-1.25-0.819-1.355-1.801-0.361
			c-3.477,3.529-7.085,6.945-10.373,10.645c-4.131,4.646-8.005,9.521-11.953,14.328c-0.24,0.293-0.334,0.902-0.215,1.27
			c1.461,4.35,3.017,8.672,4.465,13.029c1.149,3.467,2.203,6.967,3.266,10.465c0.271,0.889,0.754,1.289,1.72,1.281
			C252.434,424.488,256.451,424.508,260.468,424.508z M302.875,376.268c0.085-6.094-0.152-12.205-1.528-18.203
			c-0.759-3.307-2.439-5.553-5.989-5.938c-2.223-0.238-4.332-0.172-6.344,0.852c-1.318,0.672-2.656,0.977-4.172,0.854
			c-2.139-0.172-4.069,0.418-5.543,2.15c-1.15,1.348-2.322,2.682-3.58,3.934c-3.02,3.01-6.086,5.977-9.154,8.941
			c-0.521,0.504-0.816,0.982-0.441,1.709c0.616,1.186,1.203,2.389,1.789,3.592c1.914,3.93,3.857,7.85,5.73,11.797
			c1.598,3.367,3.094,6.779,4.682,10.148c0.845,1.797,1.461,2.121,3.437,1.893c1.651-0.189,3.288-0.496,4.94-0.707
			c4.033-0.512,8.076-0.555,12.129-0.17c1.26,0.119,2.037-0.518,2.416-1.723c0.148-0.48,0.291-0.973,0.373-1.471
			C302.568,388.09,302.998,382.215,302.875,376.268z M322.309,365.572c-0.08-0.002-0.162-0.004-0.246-0.006
			c0-3.439-0.003-6.875,0-10.314c0.017-11.145-1.234-22.178-2.99-33.16c-0.252-1.57-0.579-3.133-0.99-4.668
			c-0.13-0.473-0.643-1.137-1.018-1.164c-0.408-0.029-1.018,0.492-1.267,0.932c-1.134,1.975-2.161,4.01-3.246,6.014
			c-2.644,4.867-5.806,9.357-9.936,13.074c-2.712,2.439-5.595,4.693-8.409,7.014c-1.332,1.096-2.786,1.916-4.545,2.154
			c-0.447,0.063-0.91,0.422-1.248,0.762c-0.256,0.262-0.323,0.707-0.476,1.074c0.389-0.051,0.787-0.059,1.163-0.162
			c0.479-0.131,0.933-0.465,1.412-0.494c5.203-0.336,9.589,1.18,12.828,5.52c4.598,6.166,7.426,13.125,9.482,20.457
			c0.955,3.414,1.816,6.859,2.918,10.225c1.166,3.572,2.56,7.074,3.885,10.596c0.136,0.361,0.463,0.652,0.699,0.977
			c0.236-0.361,0.629-0.697,0.678-1.08c0.246-1.865,0.498-3.738,0.57-5.615C321.855,380.328,322.069,372.947,322.309,365.572z
			 M304.281,424.254c0,0.078,0,0.154,0,0.23c1.086,0,2.17,0.004,3.252,0c1.352-0.006,1.568-0.295,1.145-1.557
			c-1.441-4.283-2.854-8.578-4.352-12.844c-0.729-2.078-1.528-4.143-2.468-6.129c-0.765-1.615-1.798-1.924-3.398-1.146
			c-0.93,0.451-1.772,1.105-2.598,1.742c-1.649,1.273-3.35,1.99-5.397,0.904c-1.911-1.012-3.867-1.945-5.772-2.971
			c-0.755-0.406-1.394-0.359-2.147,0.002c-1.656,0.795-2.378,2.211-2.611,3.881c-0.765,5.445-1.48,10.895-2.16,16.348
			c-0.208,1.654,0.021,1.846,1.688,1.752c3.143-0.178,6.281-0.537,9.424-0.543C294.016,423.918,299.15,424.133,304.281,424.254z
			 M307.734,371.063c-0.193,0.016-0.382,0.031-0.576,0.049c0,0.732,0.016,1.471,0,2.205c-0.139,5.205-0.133,10.42-0.482,15.611
			c-0.195,2.863-0.781,5.746-1.591,8.502c-0.444,1.506-0.583,2.641,0.396,3.887c0.438,0.561,0.738,1.246,1.02,1.91
			c2.722,6.422,4.643,13.092,6.02,19.916c0.197,0.973,0.563,1.359,1.555,1.346c3.438-0.057,6.877-0.037,10.314-0.08
			c1.352-0.018,1.568-0.369,1.26-1.691c-1.036-4.475-2.033-8.959-3.104-13.428c-0.498-2.084-1.014-4.066-2.666-5.777
			c-1.538-1.592-2.62-3.715-3.576-5.76c-1.049-2.25-1.785-4.658-2.556-7.029c-1.558-4.781-3.067-9.576-4.558-14.379
			C308.648,374.602,308.215,372.824,307.734,371.063z M362.439,226.188c-0.152,0.021-0.301,0.041-0.45,0.063
			c-0.062,0.293-0.152,0.584-0.179,0.879c-0.246,2.814-0.479,5.627-0.722,8.439c-0.106,1.227-0.259,2.449-0.341,3.678
			c-0.077,1.166,0.318,1.631,1.475,1.639c0.516,0.002,1.066-0.172,1.539-0.396c1.797-0.854,2.698-2.525,3.379-4.229
			c2.202-5.498,3.589-11.248,4.386-17.094c0.813-5.939,2.277-11.715,3.654-17.523c1.299-5.496,2.614-10.994,2.423-16.709
			c-0.088-2.77-0.438-5.508-1.652-8.02c-0.524-1.08-1.312-2.08-2.154-2.943c-1.014-1.045-2.326-1.189-3.729-0.717
			c-1.321,0.441-1.682,1.467-1.83,2.68c-0.133,1.074-0.308,2.146-0.418,3.227c-0.045,0.428,0.025,0.867,0.045,1.303
			c0.393-0.117,0.816-0.172,1.17-0.363c1.879-1.006,3.949-0.945,4.967,0.482c0.813,1.141,1.668,2.533,1.752,3.861
			c0.204,3.268-0.006,6.566-0.113,9.852c-0.014,0.361-0.443,0.715-0.678,1.072c-0.19-0.359-0.498-0.701-0.553-1.08
			c-0.257-1.719-0.331-3.471-0.691-5.162c-0.266-1.248-0.754-2.486-1.359-3.613c-0.51-0.947-1.546-1.074-2.459-0.508
			c-0.453,0.285-0.907,0.619-1.254,1.02c-1.847,2.129-2.786,4.719-3.6,7.354c-0.139,0.453-0.1,1.031,0.039,1.494
			c0.746,2.42,1.406,4.879,2.361,7.217c1.394,3.408,2.154,6.861,1.141,10.463c-0.398,1.422-1.247,2.727-1.973,4.041
			c-0.137,0.248-0.738,0.453-1.004,0.355c-0.282-0.105-0.453-0.582-0.609-0.926c-0.081-0.186-0.035-0.428-0.035-0.645
			c0.003-2.281,0.022-4.561,0.003-6.842c-0.003-0.496-0.091-1.008-0.236-1.484c-0.071-0.225-0.366-0.381-0.561-0.57
			c-0.159,0.248-0.425,0.482-0.46,0.748c-0.11,0.822-0.127,1.656-0.188,2.486c-0.221,2.92-0.609,5.838,0.446,8.701
			c0.347,0.945,0.519,1.955,0.794,2.928c0.137,0.488,0.314,0.969,0.477,1.451c0.398-0.326,0.777-0.684,1.205-0.965
			c0.311-0.205,0.764-0.506,1.017-0.408c0.324,0.127,0.632,0.578,0.723,0.945c0.116,0.473,0.101,1.025-0.022,1.5
			c-0.376,1.432-0.794,2.855-1.268,4.258c-0.346,1.023-0.857,2.027-2.16,1.934c-1.322-0.098-1.37-1.297-1.688-2.236
			C362.863,227.271,362.644,226.734,362.439,226.188z M316.244,114.658c1.526,0.01,2.79,0.867,3.314,2.475
			c0.479,1.469,0.784,2.992,1.153,4.494c0.288,1.158,0.703,1.318,1.646,0.619c1.279-0.949,2.709-1.539,4.299-1.629
			c0.376-0.021,0.765,0.24,1.146,0.371c-0.203,0.342-0.369,0.713-0.611,1.02c-0.648,0.805-1.441,1.514-1.971,2.389
			c-0.523,0.875-0.2,1.527,0.788,1.654c0.852,0.113,1.876,0.203,2.579-0.166c0.945-0.498,2.076-1.223,1.486-2.721
			c-0.045-0.111,0.02-0.301,0.098-0.412c0.547-0.797,0.304-1.402-0.393-1.961c-0.246-0.195-0.418-0.5-0.576-0.779
			c-0.771-1.354-2.637-1.896-4.014-1.154c-0.467,0.252-2.828-0.172-3.162-0.576c-0.068-0.08-0.101-0.191-0.148-0.287
			c-0.525-1.033-1.044-2.07-1.588-3.096c-0.074-0.145-0.266-0.232-0.412-0.334c-0.579-0.4-1.146-0.822-1.752-1.182
			c-0.324-0.189-0.713-0.283-1.078-0.379c-0.344-0.092-0.759-0.037-1.041-0.209c-0.713-0.439-1.159-0.145-1.729,0.303
			c-0.923,0.727-1.905,1.412-2.941,1.953c-0.871,0.453-1.159,0.941-0.615,1.781c0.431,0.67,0.389,1.234-0.123,1.877
			c-0.198,0.248-0.172,0.809-0.049,1.154c0.321,0.9,0.843,1.732,1.118,2.645c0.449,1.494,1.12,2.195,2.582,2.324
			c0.33,0.029,0.676-0.109,1.017-0.17c-0.116-0.35-0.159-0.752-0.362-1.041c-1.138-1.6-1.848-3.367-2.028-5.313
			C312.678,116.242,314.201,114.645,316.244,114.658z" clip-rule="evenodd" class="color060E02 svgShape"></path><path fill="#ffffff" fill-rule="evenodd" d="M312.685 165.621c.843-.754 1.71-1.48 2.521-2.266 1.96-1.896 4.292-3.242 6.78-4.211 1.331-.518 2.915-.584 4.376-.543 4.371.123 8.617.953 12.664 2.688 3.523 1.514 6.265 3.967 8.503 7.035.677.926.774 1.945.405 2.986-.127.355-.457.803-.774.885-.337.084-.872-.117-1.141-.379-.589-.578-1.065-1.273-1.594-1.916-2.731-3.303-6.534-4.805-10.415-6.141-1.225-.422-2.51-.668-3.78-.947-3.881-.85-7.373.014-10.548 2.381-3.631 2.701-6.906 5.693-9.061 9.777-1.559 2.951-2.135 6.117-1.96 9.35.278 5.016.816 10.02 1.315 15.02.58 5.787 1.854 11.533.972 17.395-.661 4.383-2.452 8.16-6.185 10.791-.518.365-1.133.68-1.749.803-1.017.203-1.532-.492-1.099-1.445.567-1.246 1.131-2.51 1.848-3.674 2.439-3.986 3.34-8.256 2.717-12.887-.674-5.02-1.302-10.049-1.879-15.082-.271-2.369-.408-4.76-.557-7.141-.236-3.758-.499-7.516-.622-11.275-.101-3.156.007-6.35 1.338-9.273.985-2.16 2.138-4.291 3.531-6.209 2.079-2.857 3.11-6.098 4.114-9.387.537-1.764 1.039-3.541 1.648-5.281.311-.896.509-2.074 2.025-1.668.213.061.608-.418.871-.693.421-.443.732-1.016 1.215-1.361.411-.293 1.063-.578 1.493-.457 2.679.754 5.446.367 8.16.715 2.413.311 4.905.057 7.356.045 2.932-.018 5.861-.023 8.793-.082 1.227-.025 2.202.467 2.977 1.324 1.156 1.287 2.232 2.652 3.34 3.986.379.455.615 1.063 1.471.625.194-.1.939.529 1.189.961.793 1.377 1.59 2.775 2.166 4.25.723 1.842 1.261 3.762 1.795 5.67.12.428-.113.951-.184 1.43-.454-.127-1.012-.131-1.342-.406-2.16-1.805-4.293-3.643-6.392-5.516-2.021-1.809-4.299-2.813-7.068-2.836-4.13-.031-8.276-.213-12.294.947-5.157 1.488-10.014 3.652-13.981 7.369-1.309 1.227-2.271 2.822-3.396 4.252C312.396 165.359 312.542 165.488 312.685 165.621zM327.855 269.963c-.072.121-.198.539-.354.549-.35.025-.861-.031-1.047-.262-1.004-1.27-2.099-2.518-2.84-3.939-.83-1.59-1.662-3.078-3.123-4.209-2.197-1.703-4.286-3.547-6.463-5.283-.979-.783-2.132-1.1-3.422-1.162-4.301-.215-8.604-.467-12.896-.836-2.012-.174-3.994-.67-5.997-.986-2.176-.342-4.356-.693-6.547-.949-2.896-.336-5.458.508-7.881 2.139-3.081 2.074-6.266 4.006-9.463 5.904-1.826 1.082-3.301 2.467-4.359 4.279-.998 1.707-2.43 2.959-4.057 4.004-.301.197-.858.246-1.17.096-.19-.092-.281-.754-.161-1.059.509-1.27 1.163-2.482 1.671-3.754.707-1.779 1.303-3.6 2.002-5.381.221-.564.531-1.146.963-1.555.35-.334 1.043-.707 1.396-.574 1.623.623 2.62-.371 3.673-1.229 4.247-3.477 8.786-6.488 13.901-8.529 2.069-.826 4.227-.459 6.31.076 4.528 1.166 9.077 2.186 13.8 2.063 2.277-.061 4.555-.127 6.836-.176 2.744-.057 5.102.93 7.113 2.748 1.775 1.598 3.528 3.221 5.235 4.887.674.658 1.141.914 1.798-.021.612-.873 1.652-.766 2.193.211.327.592.554 1.266.689 1.932.736 3.541 1.426 7.09 2.132 10.637C327.807 269.654 327.816 269.725 327.855 269.963zM186.926 211.709c-.314-.502-.587-1.035-.949-1.498-2.031-2.584-2.938-5.428-2.242-8.725.26-1.234.385-2.51.438-3.771.022-.5-.236-1.379-.516-1.445-.485-.111-1.198.143-1.613.486-.473.398-.758 1.047-1.072 1.615-.816 1.484-1.564 3.01-2.43 4.465-.236.398-.79.613-1.201.91-.282-.43-.742-.834-.813-1.299-.34-2.189-.062-4.311.769-6.387 1.113-2.783 3.316-4.41 5.866-5.65.939-.457 1.114-1.008.768-1.9-.959-2.453-3.032-5.172-6.825-4.74-1.494.17-2.987.445-4.445.814-1.318.336-2.051 1.375-2.244 2.672-.221 1.428-.233 2.885-.415 4.318-.101.814-.249 1.654-.567 2.4-.404.945-1.344 1.068-1.83.197-.6-1.078-1.111-2.277-1.321-3.484-.622-3.598-.201-6.943 2.909-9.432 1.279-1.025 2.75-1.688 4.348-1.811 2.591-.199 5.202-.332 7.797-.236 3.923.141 6.346 3.332 6.734 6.244.713 5.352.869 10.678-.155 15.998-.44 2.273-.181 4.404.684 6.574.878 2.205 1.507 4.518 2.122 6.816.194.729.084 1.582-.055 2.35-.236 1.289-.904 1.574-2.012.863-1.156-.742-2.21-1.648-3.383-2.354-1.072-.648-2.244-1.141-3.382-1.674-.858-.402-1.429-.113-1.567.824-.295 1.967-.512 3.947-.84 5.908-.203 1.24-.449 2.492-.871 3.668-.24.674-.783 1.314-1.348 1.783-.991.824-2.07.557-2.361-.695-.496-2.105-.849-4.26-1.043-6.412-.12-1.352.9-.451 1.606-.447.029-.457.104-.898.078-1.334-.12-2.084.33-4.039 1.415-5.811 1.299-2.113 3.123-2.66 5.407-1.621 1.146.521 2.229 1.182 3.35 1.766.294.152.615.254.923.377C186.73 211.926 186.828 211.818 186.926 211.709z" clip-rule="evenodd" class="color060E02 svgShape"></path><path fill="#ffffff" fill-rule="evenodd" d="M325.306 182.85c-.558-.305-1.121-.596-1.672-.914-2.423-1.402-3.579-3.475-3.313-6.295.016-.178.08-.373.035-.535-.094-.326-.172-.74-.408-.912-.162-.117-.645.025-.865.203-1.046.832-2.079 1.68-3.055 2.592-1.373 1.285-2.666 2.656-4.046 3.938-.292.273-.891.537-1.183.412-.314-.133-.596-.727-.599-1.119 0-.631.136-1.307.398-1.883 2.108-4.67 5.718-7.846 10.292-9.947 1.658-.764 3.434-1.326 5.205-1.785 4.104-1.066 7.885.037 11.436 2.072 2.912 1.67 5.42 3.85 7.521 6.473.979 1.221.713 1.6-.725 2.162-1.711.674-2.754-.096-3.975-1.072-1.799-1.441-3.746-2.693-5.637-4.014-.176-.123-.389-.219-.597-.252-.266-.041-.541-.004-.813.002.007.27-.022.549.029.811.201 1.021.538 2.027.625 3.055.236 2.838-1.389 5.309-4.143 6.484-.412.178-.807.383-1.212.574.017.104.029.207.046.307.428.049.861.156 1.285.135 3.418-.166 6.583-1.213 9.629-2.729.725-.361 1.564-.551 2.374-.668 1.263-.186 1.82.609 1.318 1.809-.651 1.553-2.019 2.352-3.437 2.994-4.166 1.891-8.55 2.047-12.975 1.285-1.591-.275-3.136-.844-4.678-1.346-.58-.189-1.27-.611-.914-1.318.162-.318.963-.447 1.468-.434.826.023 1.646.232 2.469.365C325.23 183.148 325.267 182.998 325.306 182.85zM253.668 179.719c-.506-.379-1.014-.758-1.522-1.135-2.012-1.484-2.753-3.525-2.649-5.959.016-.363-.113-.729-.176-1.094-.355.119-.748.18-1.059.371-1.297.789-2.582 1.598-3.846 2.439-1.289.857-2.592.795-3.9.127-.664-.338-.93-.867-.271-1.455 3.848-3.43 7.768-6.869 12.86-8.221 4.853-1.291 9.657-.92 14.215 1.539 3.006 1.619 5.358 3.896 7.428 6.539.872 1.109 1.821 2.154 2.649 3.291.254.348.228.902.328 1.359-.499.063-1.047.293-1.487.158-2.679-.809-4.749-2.508-6.604-4.555-1.649-1.811-3.625-3.221-5.948-4.072-.372-.139-.823-.078-1.234-.107.077.395.081.826.246 1.18 1.935 4.131-.456 8.951-4.924 9.852-.833.17-1.685.248-2.526.365 0 .119-.004.234-.007.352 1.671.068 3.347.248 5.011.172 1.869-.084 3.729-.4 5.592-.613.356-.039.762-.178 1.069-.066.466.17.868.518 1.296.791-.314.328-.57.82-.956.965-6.806 2.58-13.615 2.836-20.376-.162-.635-.283-1.26-.764-1.682-1.313-.301-.393-.431-1.1-.298-1.572.081-.289.846-.621 1.231-.549 1.982.373 3.939.869 5.905 1.328.505.117 1.001.262 1.499.393C253.577 179.949 253.623 179.834 253.668 179.719zM335.568 237.176c-.34 2.721-.651 5.445-1.043 8.156-.068.467-.479.885-.732 1.324-.291-.443-.752-.854-.849-1.336-.836-4.148-1.552-8.324-2.42-12.465-.593-2.814-1.659-5.463-3.379-7.811-.735-1.006-1.27-1.096-2.005-.055-1.617 2.297-3.829 3.283-6.573 3.375-3.593.123-6.491 1.748-8.993 4.252-.965.969-2.057 1.816-3.129 2.68-1.901 1.529-4.256 1.709-6.531 2.105-1.85.324-3.695.393-5.406-.502-.547-.285-1.237-.834-1.314-1.346-.131-.846.719-1.148 1.464-1.277 1.886-.328 3.79-.564 5.655-.971 2.087-.455 3.671-1.811 5.199-3.213 1.387-1.271 2.764-2.553 4.164-3.811 2.033-1.826 4.373-3.094 7.152-2.9 3.874.271 5.157-2.807 4.162-5.682-1.282-3.703-3.203-7.217-6.941-9.23-.363-.197-.548-.738-.813-1.117.431-.271.843-.74 1.292-.779 2.22-.18 4.219.521 5.666 2.193 2.978 3.443 5.899 6.941 8.705 10.523 1.464 1.871 2.792 3.889 3.91 5.986 1.963 3.684 2.711 7.689 2.442 11.879C335.357 237.162 335.461 237.17 335.568 237.176zM284.174 209.068c-.858-.113-1.739-.141-2.572-.357-2.594-.666-4.639.094-5.915 2.412-1.63 2.957-2.468 6.109-1.37 9.477.23.697.684 1.359 1.16 1.934.729.883 1.652 1.102 2.821.77 3.437-.971 6.747-.635 9.511 1.75 1.594 1.377 2.896 3.109 4.24 4.756.256.313.088.973.113 1.473-.466-.035-.945-.01-1.398-.113-.872-.197-1.715-.557-2.592-.682-1.145-.162-2.32-.096-3.46-.266-.454-.068-1.053-.414-1.225-.795-.321-.719-.758-.861-1.448-.797-1.584.15-3.178.217-4.759.398-4.399.514-6.877-2.238-8.18-5.791-.14-.379-.389-.721-.586-1.082-.376.242-.816.426-1.114.742-2.881 3.027-4.52 6.783-6.049 10.582-.906 2.246-1.697 4.539-2.539 6.811-.039.104-.049.232-.117.303-.285.289-.59.564-.884.844-.162-.373-.489-.76-.457-1.115.182-2.09.282-4.207.726-6.246.709-3.246 1.584-6.463 2.54-9.648.807-2.674 2.455-4.898 4.272-6.988 3.062-3.521 6.104-7.059 9.193-10.551 3.635-4.109 9.162-2.223 11.75.482.227.236.354.779.24 1.064-.111.273-.577.457-.92.564-.299.092-.646.02-.973.02C284.181 209.033 284.181 209.051 284.174 209.068zM295.545 278.285c-3.071-.164-6.213-.375-9.355-.482-1.973-.066-3.807.637-5.43 1.658-2.627 1.656-5.057 3.641-7.732 5.205-2.164 1.266-4.559 2.145-6.881 3.127-.298.127-.765-.145-1.153-.23.146-.299.214-.713.454-.879 4.347-2.998 7.829-6.959 11.707-10.477 2.789-2.525 5.941-3.637 9.822-3.365 5.478.385 10.991.324 16.488.367 2.209.018 4.199.506 6.032 1.768 1.386.953 2.145 2.32 2.851 3.754 1.273 2.588 2.543 5.184 3.813 7.775.127.26.318.521.334.791.023.371.035.879-.178 1.088-.215.205-.804.27-1.076.119-.906-.502-1.911-.98-2.572-1.738-1.561-1.793-3.125-3.629-4.354-5.652-1.18-1.939-2.744-2.793-4.879-2.82C300.832 278.262 298.224 278.285 295.545 278.285z" clip-rule="evenodd" class="color060E02 svgShape"></path><path fill="#ffffff" fill-rule="evenodd" d="M259.875 155.596c3.029.477 6.077.854 9.08 1.461 2.656.535 4.564 2.369 6.084 4.455 2.209 3.033 4.186 6.238 6.262 9.369.221.332.512.637.635 1.002.123.367.078.791.107 1.191-.402.004-.904.166-1.189-.012-1.124-.709-2.297-1.408-3.236-2.328-1.834-1.791-3.687-3.6-5.231-5.631-2.19-2.873-5.005-4.254-8.517-4.445-4.162-.23-8.307-.275-12.404.736-2.374.586-4.285 1.939-6.08 3.439-1.682 1.406-3.152 3.068-4.727 4.609-.639.619-1.24 1.506-2.29.988-1.015-.498-.93-1.52-.687-2.393.256-.92.561-1.904 1.131-2.641 2.652-3.447 6.041-6.094 10.051-7.688 3.467-1.381 7.219-1.791 10.969-1.834C259.85 155.785 259.861 155.689 259.875 155.596zM295.561 265.74c-3.003 0-6.006.104-9.002-.035-1.941-.09-3.865-.525-5.799-.813-.211-.031-.463-.059-.619-.184-.424-.344-.807-.738-1.205-1.113.389-.375.727-.984 1.18-1.084 2.637-.594 5.283-1.229 7.966-1.547 4.897-.58 9.821-.592 14.729-.002 1.361.162 2.705.473 4.047.777.861.197 1.597.705 1.648 1.645.055.965-.678 1.51-1.525 1.73-1.002.264-2.035.523-3.063.551-2.785.074-5.571.025-8.357.025C295.561 265.709 295.561 265.725 295.561 265.74zM256.613 201.529c-.275-.148-.777-.256-.875-.516-.104-.266.08-.832.327-1.01 1.862-1.35 3.66-2.85 5.688-3.895 4.334-2.23 8.008-5.285 11.578-8.523 1.707-1.549 3.469-3.064 5.743-3.789.765-.242 1.429-.217 1.966.432.577.693.477 1.48.029 2.119-.592.852-1.275 1.672-2.051 2.361-2.879 2.578-5.73 5.207-8.746 7.617C266.341 199.467 261.604 200.668 256.613 201.529zM311.188 299.109c-.029 4.355-3.371 9.229-7.531 10.701-.512.182-1.163-.033-1.75-.066.085-.559.023-1.195.279-1.66.943-1.709 1.988-3.359 2.996-5.033 1.283-2.129 1.273-4.391.703-6.717-.45-1.822-.92-3.643-1.279-5.482-.104-.527.032-1.172.256-1.678.59-1.35 2.355-1.572 3.01-.283 1.004 1.982 1.811 4.082 2.526 6.188C310.832 296.365 310.936 297.762 311.188 299.109zM329.479 204.486c-1.209-.428-2.492-.73-3.629-1.316-5.125-2.641-9.494-6.291-13.482-10.416-1.189-1.23-1.96-2.734-1.633-4.518.088-.484.531-1.088.963-1.266.362-.146 1.064.111 1.415.42 4.888 4.279 9.741 8.596 14.594 12.91.864.768 1.739 1.525 2.543 2.355.292.297.622.887.505 1.164C330.625 204.129 330.006 204.232 329.479 204.486zM297.912 247.65c-2.441-.084-4.457-1.096-6.311-2.49-1.499-1.129-2.986-2.281-4.418-3.492-.566-.479-1.053-1.098-1.436-1.738-.689-1.141-.07-2.34 1.241-2.615 1.675-.352 2.919.59 4.186 1.402 1.396.895 2.688 1.971 4.14 2.764 1.604.875 3.356 1.48 5.002 2.281.713.346 1.334.883 1.996 1.334-.604.621-1.115 1.402-1.834 1.816C299.73 247.342 298.777 247.418 297.912 247.65zM233.25 182.5c1.152.084 2.044 1.008 2.734 2.076 2.384 3.707 4.658 7.488 7.81 10.641.36.359.295 1.145.428 1.732-.57.033-1.237.279-1.694.066-4.846-2.252-8.588-5.689-10.885-10.566-.311-.662-.431-1.467-.438-2.207C231.199 183.105 231.908 182.492 233.25 182.5zM352.355 186.412c-.25 2.648-.973 5.145-2.55 7.283-1.756 2.375-3.657 4.643-5.494 6.959-.02.027-.039.066-.067.08-.5.26-1.002.516-1.5.773.006-.561-.14-1.182.045-1.674 1.283-3.371 2.662-6.699 3.939-10.072.418-1.104.592-2.299.92-3.441.188-.656.398-1.316.713-1.916.408-.781 1.133-1.459 1.988-1.16.688.24 1.283.953 1.73 1.592C352.355 185.23 352.273 185.877 352.355 186.412zM289.924 308.508c-.126-.064-.703-.176-.855-.492-.154-.326-.048-.99.205-1.264 2.082-2.246 4.166-4.502 6.385-6.615 1.037-.988 2.623-.172 2.775 1.299.036.314-.002.656-.094.961C297.543 305.137 293.154 308.443 289.924 308.508zM286.908 218.785c.064-.721.366-1.574 1.276-1.992.862-.393 2.005-.016 2.491.994.891 1.846 1.639 3.768 2.339 5.697.091.244-.392.818-.739 1.055-.236.16-.705.055-1.046-.027C289.26 224.037 286.908 221.025 286.908 218.785zM258.145 51.951c1.027.389 2.227.76 3.344 1.291.906.43 1.014.418 1.314-.564.412-1.346.879-2.674 1.384-3.984.11-.279.57-.68.729-.625.304.107.66.467.729.779.515 2.363 2.145 3.74 4.092 4.92 1.227.746 2.432 1.572 3.504 2.52 1.449 1.279 1.785 3.857.892 5.508-.843 1.547-2.887 2.342-4.927 1.768-.992-.281-1.977-.717-2.832-1.277-.803-.523-1.186-.41-1.584.402-.801 1.641-1.795 3.172-3.375 4.154-.939.584-1.996.99-3.023 1.418-.203.084-.582-.023-.758-.18-.113-.1-.029-.463.029-.691.043-.168.182-.313.282-.461 1.39-2.023.842-3.119-.392-4.566-1.031-1.209-2.145-2.348-3.156-3.568-.404-.492-.725-1.098-.926-1.701-.713-2.113-.043-3.605 2.024-4.445C256.25 52.34 257.082 52.223 258.145 51.951zM241.346 95.137c-.014 1.879-1.575 3.684-3.396 3.992-.71.121-1.438.154-2.161.174-1.328.037-1.444.189-1.182 1.461.326 1.57.561 3.141-.314 4.643-.57.977-1.043 1.068-1.656.129-.654-1.008-1.512-1.342-2.666-1.262-1.405.096-2.818.15-4.224.133-1.847-.021-3.14-.867-3.521-2.191-.396-1.371.321-3.039 1.633-4.08 1.464-1.162 3.142-1.586 4.956-1.627 1.296-.033 1.41-.309 1.089-1.602-.305-1.242-.425-2.541-.505-3.822-.023-.33.408-.689.631-1.033.318.24.746.416.93.732.732 1.244 1.876 1.33 3.117 1.268 1.113-.057 2.238-.17 3.353-.117 2.079.094 3.473 1.084 3.825 2.592C241.31 94.77 241.329 95.023 241.346 95.137zM299.504 114.254c-7.105-.727-13.535-2.322-19.266-6.111-.965-.637-1.986-1.197-2.909-1.885-.343-.252-.483-.771-.716-1.172.434-.189.878-.561 1.305-.541 2.382.1 4.756.309 7.134.459 4.792.305 8.692 2.693 12.485 5.328.8.555 1.655 1.055 2.371 1.703.434.395.648 1.031.962 1.557C300.322 113.857 299.775 114.121 299.504 114.254zM309.279 107.014c-.143.287-.239.824-.537.979-.281.146-.839 0-1.163-.201-3.217-1.992-5.983-4.51-8.542-7.285-2.488-2.693-3.969-5.912-5.148-9.311-.084-.236-.152-.486-.178-.736-.1-1.053.35-1.428 1.24-.883 1.666 1.01 3.26 2.135 4.863 3.24 4.51 3.117 7.528 7.32 9.09 12.568C309.047 105.867 309.131 106.369 309.279 107.014zM345.48 73.104c-.418 1.104.26 1.619 1.52 2.01 1.604.5 2.397 1.928 2.978 3.391.372.938-.095 1.398-1.021 1.098-.716-.236-.895.053-.955.693-.063.639-.107 1.311-.338 1.898-.502 1.293-1.48 1.564-2.568.719-1.805-1.404-2.899-3.221-2.835-5.576.026-.957-.239-1.463-1.257-1.793-1.908-.621-3.259-2.09-4.535-3.574-.152-.178-.233-.635-.117-.775.162-.199.545-.324.823-.311 1.685.092 1.862-.029 2.196-1.727.091-.459.146-.928.233-1.389.285-1.52 1.529-2 2.835-1.131C344.654 68.115 345.63 70.195 345.48 73.104zM321.693 98.063c-.401 2.342-.764 4.691-1.23 7.02-.091.457-.525 1.102-.895 1.176-.344.066-.959-.436-1.198-.838-1.882-3.176-3.337-6.504-3.113-10.313.133-2.264.288-4.535.567-6.785.084-.676.615-1.297.942-1.943.47.488 1.081.9 1.39 1.477C319.873 91.041 321.502 94.271 321.693 98.063zM328.717 109.313c.428-4.992 2.588-9.154 6.709-12.24.285-.211.793-.391 1.059-.271.24.109.383.639.406.992.271 4.406-.684 8.418-3.924 11.637-.713.709-1.48 1.389-2.313 1.941-1.199.789-1.908.354-1.938-1.08C328.711 110.004 328.717 109.711 328.717 109.313zM339.585 121.17c-1.11-.146-2.231-.215-3.32-.457-1.153-.256-1.348-.957-.645-1.9 2.831-3.791 7.247-4.908 11.559-2.926 2.581 1.188 2.565 1.344.369 3.035C345.17 120.752 342.488 121.266 339.585 121.17z" clip-rule="evenodd" class="color060E02 svgShape"></path></svg></g></svg>